HIERARCHY
ROOT Hips
{
	OFFSET 0.00000 0.00000 0.00000
	CHANNELS 6 Xposition Yposition Zposition Zrotation Yrotation Xrotation 
	JOINT LHipJoint
	{
		OFFSET 0 0 0
		CHANNELS 3 Zrotation Yrotation Xrotation
		JOINT LeftHip
		{
			OFFSET 1.64577 -1.42384 0.94276
			CHANNELS 3 Zrotation Yrotation Xrotation
			JOINT LeftKnee
			{
				OFFSET 2.11538 -5.81197 0.00000
				CHANNELS 3 Zrotation Yrotation Xrotation
				JOINT LeftAnkle
				{
					OFFSET 2.36541 -6.49893 0.00000
					CHANNELS 3 Zrotation Yrotation Xrotation
					JOINT LeftToe
					{
						OFFSET 0.17759 -0.48793 1.73865
						CHANNELS 3 Zrotation Yrotation Xrotation
						End Site
						{
							OFFSET 0.00000 -0.00000 0.91205
						}
					}
				}
			}
		}
	}
	JOINT RHipJoint
	{
		OFFSET 0 0 0
		CHANNELS 3 Zrotation Yrotation Xrotation
		JOINT RightHip
		{
			OFFSET -1.43750 -1.42384 0.94276
			CHANNELS 3 Zrotation Yrotation Xrotation
			JOINT RightKnee
			{
				OFFSET -2.10480 -5.78291 0.00000
				CHANNELS 3 Zrotation Yrotation Xrotation
				JOINT RightAnkle
				{
					OFFSET -2.34880 -6.45329 0.00000
					CHANNELS 3 Zrotation Yrotation Xrotation
					JOINT RightToe
					{
						OFFSET -0.22842 -0.62757 1.80469
						CHANNELS 3 Zrotation Yrotation Xrotation
						End Site
						{
							OFFSET -0.00000 -0.00000 0.95886
						}
					}
				}
			}
		}
	}
	JOINT lowerback
	{
		OFFSET 0 0 0
		CHANNELS 3 Zrotation Yrotation Xrotation
		JOINT Chest
		{
			OFFSET 0.06217 1.93758 -0.49272
			CHANNELS 3 Zrotation Yrotation Xrotation
			JOINT Chest2
			{
				OFFSET -0.03114 2.03621 -0.05830
				CHANNELS 3 Zrotation Yrotation Xrotation
				JOINT lowerneck
				{
					OFFSET 0 0 0
					CHANNELS 3 Zrotation Yrotation Xrotation
					JOINT Neck
					{
						OFFSET 0.04421 1.41010 0.26562
						CHANNELS 3 Zrotation Yrotation Xrotation
						JOINT Head
						{
							OFFSET -0.13407 1.43847 0.06181
							CHANNELS 3 Zrotation Yrotation Xrotation
							End Site
							{
								OFFSET -0.04980 1.45844 -0.00689
							}
						}
					}
				}
				JOINT LeftCollar
				{
					OFFSET 0 0 0
					CHANNELS 3 Zrotation Yrotation Xrotation
					JOINT LeftShoulder
					{
						OFFSET 2.18382 1.47753 -0.35694
CHANNELS 3 Zrotation Xrotation Yrotation
						JOINT LeftElbow
						{
OFFSET 0 -5.054600 0.000000
CHANNELS 3 Zrotation Xrotation Yrotation
							JOINT LeftWrist
							{
OFFSET 0 -3.390130 0.000000
CHANNELS 3 Zrotation Xrotation Yrotation
								JOINT lhand
								{
									OFFSET 0 0 0
CHANNELS 3 Zrotation Xrotation Yrotation
									JOINT LFingers
									{
OFFSET 0 -0.572420 -0.000000
CHANNELS 3 Zrotation Xrotation Yrotation
										End Site
										{
OFFSET 0 -0.461500 -0.000000
										}
									}
								}
								JOINT LThumb
								{
OFFSET 0 0.000000 0.000000
CHANNELS 3 Zrotation Xrotation Yrotation
									End Site
									{
OFFSET 0 -0.468550 0.468550
									}
								}
							}
						}
					}
				}
				JOINT RightCollar
				{
					OFFSET 0 0 0
					CHANNELS 3 Zrotation Yrotation Xrotation
					JOINT RightShoulder
					{
						OFFSET -2.06033 1.72839 -0.47437
CHANNELS 3 Zrotation Xrotation Yrotation
						JOINT RightElbow
						{
OFFSET 0 -5.070100 0.000000
CHANNELS 3 Zrotation Xrotation Yrotation
							JOINT RightWrist
							{
OFFSET 0 -3.149570 -0.000000
CHANNELS 3 Zrotation Xrotation Yrotation
								JOINT rhand
								{
									OFFSET 0 0 0
CHANNELS 3 Zrotation Xrotation Yrotation
									JOINT RFingers
									{
OFFSET 0 -0.718190 -0.000000
CHANNELS 3 Zrotation Xrotation Yrotation
										End Site
										{
OFFSET 0 -0.579020 -0.000000
										}
									}
								}
								JOINT RThumb
								{
OFFSET 0 0.000000 0.000000
CHANNELS 3 Zrotation Xrotation Yrotation
									End Site
									{
OFFSET 0 -0.587860 0.587860
									}
								}
							}
						}
					}
				}
			}
		}
	}
}
MOTION
Frames: 8
Frame Time: 0.008333333333333333
0.282211 25.434747 2.777447 -17.433155 -71.671512 19.828772 0.000000 0.000000 0.000000 -20.534130 -8.363357 -7.646882 3.302070 11.168633 32.850860 2.193692 1.218205 -28.478754 0.006527 -0.381254 -1.047798 0.000000 0.000000 0.000000 27.614895 7.051742 -9.859605 -3.859713 -11.971313 35.630533 -1.287291 -13.438268 -30.028716 -0.455058 4.326933 -11.998391 0.037844 2.078628 11.334883 -0.699206 2.575155 5.019547 -1.052107 1.222898 -1.080714 8.278808 3.740707 -9.695184 -6.642720 4.604300 9.950805 -3.081138 2.157984 4.921058 0.000000 0.000000 0.000000 13.608413 -4.615522 -44.340419 115.249877 -57.448188 81.679753 44.375080 -2.480685 -1.465960 0.000000 0.000000 0.000000 -7.125000 0.000000 0.000000 14.215677 31.813448 4.713743 0.000000 0.000000 0.000000 -14.612524 -16.524688 70.748064 -24.371602 -35.554774 -7.921589 -59.932719 -42.546962 -31.958687 0.000000 0.000000 0.000000 7.125000 0.000000 0.000000 -14.856132 -19.835624 -19.533090
0.281362 25.432121 2.795776 -17.446125 -71.811986 19.838285 0.000000 0.000000 0.000000 -20.655593 -8.311549 -7.583405 3.296933 11.160805 32.824272 2.154209 1.566304 -28.354210 0.027343 -1.017488 -2.797362 0.000000 0.000000 0.000000 27.479147 6.935475 -9.922695 -3.876987 -11.994830 35.713790 -1.286100 -13.367094 -29.958089 -0.476857 4.428179 -12.284565 0.029507 2.053189 11.293771 -0.700084 2.540049 5.048098 -1.041967 1.205150 -1.029668 8.230942 3.785700 -9.920267 -6.273434 4.632084 10.702243 -2.952098 2.188643 5.183777 0.000000 0.000000 0.000000 13.499617 -4.449408 -44.280951 115.429477 -57.409618 81.831082 44.521426 -2.376481 -1.551606 0.000000 0.000000 0.000000 -7.125000 0.000000 0.000000 14.348127 31.931161 4.718064 0.000000 0.000000 0.000000 -14.699358 -16.603965 70.860654 -24.403512 -35.588127 -7.940186 -59.895092 -42.596664 -32.075560 0.000000 0.000000 0.000000 7.125000 0.000000 0.000000 -14.794170 -19.940888 -19.462749
0.281330 25.430852 2.816189 -17.218188 -71.910061 19.651886 0.000000 0.000000 0.000000 -20.851557 -8.325326 -7.506981 3.282192 11.138376 32.748139 2.111235 1.880889 -28.196762 0.057799 -1.541885 -4.241312 0.000000 0.000000 0.000000 27.247615 6.754309 -10.052622 -3.897799 -12.023069 35.813786 -1.295192 -13.217049 -29.886764 -0.489768 4.487175 -12.451406 0.004680 1.988138 11.215503 -0.712284 2.451666 5.070835 -1.026903 1.161068 -0.965599 8.172843 3.845517 -10.152555 -5.892189 4.675645 11.525304 -2.815765 2.228604 5.472126 0.000000 0.000000 0.000000 13.392603 -4.265862 -44.185009 115.605985 -57.371401 81.979743 44.699369 -2.260663 -1.676279 0.000000 0.000000 0.000000 -7.125000 0.000000 0.000000 14.513598 32.102829 4.713595 0.000000 0.000000 0.000000 -14.780692 -16.699782 70.979002 -24.424869 -35.610346 -7.952619 -59.799333 -42.533628 -32.222951 0.000000 0.000000 0.000000 7.125000 0.000000 0.000000 -14.691388 -20.038189 -19.334534
0.281656 25.430714 2.837178 -16.847705 -71.995559 19.356619 0.000000 0.000000 0.000000 -21.090842 -8.371906 -7.430748 3.260003 11.104491 32.633297 2.080631 2.072279 -28.072599 0.078279 -1.805108 -4.967266 0.000000 0.000000 0.000000 26.961833 6.566768 -10.219949 -3.920606 -12.053908 35.923121 -1.315176 -13.007797 -29.837658 -0.490980 4.492837 -12.467423 -0.043887 1.903628 11.109740 -0.727841 2.336040 5.086939 -0.998303 1.103306 -0.894761 8.112808 3.915334 -10.381610 -5.509346 4.728155 12.398099 -2.677242 2.274392 5.777827 0.000000 0.000000 0.000000 13.292135 -4.064538 -44.063340 115.783850 -57.332561 82.129554 44.887404 -2.150865 -1.820478 0.000000 0.000000 0.000000 -7.125000 0.000000 0.000000 14.691593 32.301933 4.701985 0.000000 0.000000 0.000000 -14.856553 -16.806592 71.084452 -24.438222 -35.624229 -7.960382 -59.649049 -42.297294 -32.353979 0.000000 0.000000 0.000000 7.125000 0.000000 0.000000 -14.566764 -20.077332 -19.167554
0.282706 25.431658 2.859436 -16.230586 -72.055203 18.869430 0.000000 0.000000 0.000000 -21.402098 -8.455992 -7.380135 3.233692 11.064079 32.496468 2.071264 2.083546 -28.015507 0.073848 -1.747359 -4.808025 0.000000 0.000000 0.000000 26.581989 6.314275 -10.453867 -3.943204 -12.084427 36.031359 -1.342252 -12.729709 -29.777871 -0.486761 4.473477 -12.412747 -0.116877 1.798808 10.963467 -0.761248 2.192075 5.092080 -0.970356 1.031637 -0.813920 8.044268 3.982587 -10.592390 -5.120179 4.772761 13.289758 -2.535580 2.318025 6.087386 0.000000 0.000000 0.000000 13.208456 -3.853766 -43.938519 115.957242 -57.294341 82.275494 45.090748 -2.096483 -1.932958 0.000000 0.000000 0.000000 -7.125000 0.000000 0.000000 14.876169 32.458980 4.706454 0.000000 0.000000 0.000000 -14.928777 -16.916430 71.170464 -24.448431 -35.634910 -7.966287 -59.481617 -41.944459 -32.434812 0.000000 0.000000 0.000000 7.125000 0.000000 0.000000 -14.451875 -20.047517 -19.004168
0.283380 25.432760 2.878966 -15.803142 -72.162100 18.547117 0.000000 0.000000 0.000000 -21.651439 -8.500900 -7.336942 3.209734 11.027058 32.371272 2.091585 1.894459 -28.073446 0.043317 -1.331438 -3.661464 0.000000 0.000000 0.000000 26.282704 6.168839 -10.625512 -3.961516 -12.108991 36.118464 -1.372127 -12.479721 -29.764232 -0.473344 4.412370 -12.239926 -0.180894 1.723952 10.842662 -0.776129 2.088611 5.096236 -0.934186 0.979878 -0.747420 7.972986 4.036779 -10.775235 -4.737909 4.796395 14.179957 -2.397199 2.352432 6.392463 0.000000 0.000000 0.000000 13.148827 -3.651538 -43.831083 116.111487 -57.260092 82.405245 45.296413 -2.119723 -1.984908 0.000000 0.000000 0.000000 -7.125000 0.000000 0.000000 15.050644 32.533883 4.737025 0.000000 0.000000 0.000000 -15.002577 -17.019698 71.261084 -24.462882 -35.649927 -7.974731 -59.355789 -41.671144 -32.472425 0.000000 0.000000 0.000000 7.125000 0.000000 0.000000 -14.374119 -19.999290 -18.889707
0.283013 25.433862 2.894851 -15.655404 -72.323427 18.463102 0.000000 0.000000 0.000000 -21.806155 -8.504573 -7.301040 3.193849 11.002450 32.288267 2.142636 1.499543 -28.253964 0.008793 -0.589626 -1.620313 0.000000 0.000000 0.000000 26.106777 6.160392 -10.699059 -3.970973 -12.121662 36.163639 -1.394623 -12.324270 -29.783147 -0.461316 4.356819 -12.082730 -0.222947 1.690070 10.755801 -0.765662 2.041140 5.102387 -0.891765 0.955637 -0.696460 7.925056 4.078557 -10.942714 -4.393401 4.799976 15.083004 -2.276181 2.376856 6.701620 0.000000 0.000000 0.000000 13.110813 -3.459726 -43.753771 116.243248 -57.230618 82.516071 45.489142 -2.209982 -1.964891 0.000000 0.000000 0.000000 -7.125000 0.000000 0.000000 15.199942 32.509734 4.796157 0.000000 0.000000 0.000000 -15.079155 -17.111334 71.357954 -24.482715 -35.670586 -7.986300 -59.291424 -41.492279 -32.412374 0.000000 0.000000 0.000000 7.125000 0.000000 0.000000 -14.363468 -19.885433 -18.858672
0.281759 25.434698 2.906836 -15.817135 -72.549378 18.634925 0.000000 0.000000 0.000000 -21.863802 -8.459756 -7.265848 3.188956 10.994774 32.262352 2.205833 1.040179 -28.492191 0.002813 0.205019 0.563296 0.000000 0.000000 0.000000 26.061429 6.294401 -10.657542 -3.970768 -12.121391 36.162807 -1.404442 -12.292394 -29.822007 -0.455936 4.331763 -12.011878 -0.237609 1.704857 10.711579 -0.731259 2.059978 5.113770 -0.848458 0.964374 -0.662166 7.890423 4.105176 -11.079344 -4.078059 4.780863 15.966193 -2.168903 2.390288 7.001292 0.000000 0.000000 0.000000 13.118897 -3.292914 -43.715020 116.347617 -57.207172 82.603761 45.666890 -2.334725 -1.919078 0.000000 0.000000 0.000000 -7.125000 0.000000 0.000000 15.331689 32.449772 4.863445 0.000000 0.000000 0.000000 -15.151300 -17.185152 71.459344 -24.502459 -35.691157 -7.997870 -59.311096 -41.535654 -32.332822 0.000000 0.000000 0.000000 7.125000 0.000000 0.000000 -14.402637 -19.809518 -18.901747
